# xmcd
# 
# Track frame offsets:
#     150
#     15097
#     30977
#     50907
#     69890
#     88570
#     104509
#     119806
#     134009
#     151861
#     169461
#     189788
#     206617
#     223026
#     238748
# 
# Disc length: 3389
# 
# Revision: 5
# Processed by: cddbd v1.5.2PL0 Copyright (c) Steve Scherf et al.
# Submitted via: fre:ac v1.0.31
# 
DISCID=cf0d3b0f
DTITLE=Phil Vassar - Greatest Hits Volume 1
DYEAR=2006
DGENRE=Country
TTITLE0=Bye Bye
TTITLE1=In A Real Love
TTITLE2=Carlene
TTITLE3=I'm Alright
TTITLE4=Last Day Of My Life
TTITLE5=My Next Thirty Years
TTITLE6=Little Red Rodeo
TTITLE7=American Child
TTITLE8=Twenty One
TTITLE9=Just Another Day In Paradise
TTITLE10=For A Little While
TTITLE11=The Woman In My Life
TTITLE12=Six-Pack Summer
TTITLE13=That's When I Love You
TTITLE14=I'll Take That As A Yes (The Hot Tub Song)
EXTD=YEAR: 2006
EXTT0=
EXTT1=
EXTT2=
EXTT3=
EXTT4=
EXTT5=
EXTT6=
EXTT7=
EXTT8=
EXTT9=
EXTT10=
EXTT11=
EXTT12=
EXTT13=
EXTT14=
PLAYORDER=
